# xmcd
#
# Track frame offsets: 
#        150
#        14874
#        26854
#        39619
#        50076
#        62036
#        74713
#        86130
#        98817
#        112804
#        125259
#        141513
#        152992
#        166339
#        182811
#        195650
#        206699
#        217704
#        229640
#        242975
#        265216
#        279175
#        291518
#        305355
#        318557
#        331340
#        345341
#
# Disc length: 4770 seconds
#
# Revision: 1
# Processed by: cddbd v1.5.2PL0 Copyright (c) Steve Scherf et al.
# Submitted via: ExactAudioCopy v1.3
#
DISCID=a112a01b
DTITLE=Freddie King - Akella Presents - Greatest Bluesmen - vol. 09  C
DTITLE=D1
DYEAR=2017
DGENRE=Blues
TTITLE0=You've Got To Love Her With A Feeling
TTITLE1=Hide Away
TTITLE2=Lonesome Whistle Blues
TTITLE3=See See Baby
TTITLE4=I'm Tore Down
TTITLE5=Christmas Tears
TTITLE6=Heads Up
TTITLE7=Takin' Care Of Business
TTITLE8=Side Tracked
TTITLE9=Do The President Twist
TTITLE10=Come On
TTITLE11=Just Pickin'
TTITLE12=In The Open
TTITLE13=I'm On My Way To Atlanta
TTITLE14=Bossa Nova Watusi Twist
TTITLE15=One Hundred Years
TTITLE16=Surf Monkey
TTITLE17=Monkey Donkey
TTITLE18=King-A-Ling
TTITLE19=She Put The Whammy On Me
TTITLE20=Now I've Got A Woman
TTITLE21=Some Other Day, Some Other Time
TTITLE22=Onion Rings
TTITLE23=I Love You More Everyday
TTITLE24=She's The One
TTITLE25=Use What You've Got
TTITLE26=You've Got Me Licked
EXTD=
EXTT0=
EXTT1=
EXTT2=
EXTT3=
EXTT4=
EXTT5=
EXTT6=
EXTT7=
EXTT8=
EXTT9=
EXTT10=
EXTT11=
EXTT12=
EXTT13=
EXTT14=
EXTT15=
EXTT16=
EXTT17=
EXTT18=
EXTT19=
EXTT20=
EXTT21=
EXTT22=
EXTT23=
EXTT24=
EXTT25=
EXTT26=
PLAYORDER=
